<svg width="640" height="400" viewBox="0 0 640 400" fill="none" xmlns="http://www.w3.org/2000/svg">
  <rect width="640" height="400" rx="40" fill="url(#bg)"/>
  <circle cx="118" cy="80" r="54" fill="#FFE9C8" opacity="0.82"/>
  <circle cx="542" cy="74" r="17" fill="#FFFFFF" opacity="0.92"/>
  <g filter="url(#shadow)">
    <path d="M190 118C190 96.4609 207.461 79 229 79H386C407.539 79 425 96.4609 425 118V182C425 203.539 407.539 221 386 221H293L247 257V221H229C207.461 221 190 203.539 190 182V118Z" fill="white"/>
    <path d="M216 118C216 109.163 223.163 102 232 102H386C394.837 102 402 109.163 402 118V181C402 189.837 394.837 197 386 197H279L248 222V197H232C223.163 197 216 189.837 216 181V118Z" fill="url(#bubble)"/>
    <circle cx="272" cy="151" r="12" fill="#FFB347"/>
    <circle cx="310" cy="151" r="12" fill="#FFB347"/>
    <circle cx="348" cy="151" r="12" fill="#FFB347"/>
  </g>
  <g filter="url(#smallShadow)">
    <path d="M358 184C358 168.536 370.536 156 386 156H472C487.464 156 500 168.536 500 184V232C500 247.464 487.464 260 472 260H450V292L412 260H386C370.536 260 358 247.464 358 232V184Z" fill="white"/>
    <circle cx="414" cy="208" r="10" fill="#FF8A00"/>
    <circle cx="447" cy="208" r="10" fill="#FFB347"/>
  </g>
  <g filter="url(#smallShadow)">
    <rect x="446" y="224" width="72" height="72" rx="20" fill="#FFF4E5"/>
    <circle cx="482" cy="260" r="18" fill="#F39A27"/>
    <path d="M457 286C462 274 471 268 482 268C493 268 502 274 507 286" stroke="#F39A27" stroke-width="8" stroke-linecap="round"/>
  </g>
  <g filter="url(#smallShadow)">
    <circle cx="128" cy="304" r="36" fill="#FFF1DF"/>
    <path d="M113 304H142" stroke="#E17700" stroke-width="7" stroke-linecap="round"/>
    <path d="M133 293L144 304L133 315" stroke="#E17700" stroke-width="7" stroke-linecap="round" stroke-linejoin="round"/>
  </g>
  <defs>
    <linearGradient id="bg" x1="0" y1="0" x2="640" y2="400" gradientUnits="userSpaceOnUse">
      <stop stop-color="#FFFBF5"/>
      <stop offset="1" stop-color="#FFF0DB"/>
    </linearGradient>
    <linearGradient id="bubble" x1="216" y1="102" x2="402" y2="222" gradientUnits="userSpaceOnUse">
      <stop stop-color="#FFFFFF"/>
      <stop offset="1" stop-color="#FFE0B8"/>
    </linearGradient>
    <filter id="shadow" x="152" y="51" width="311" height="244" filterUnits="userSpaceOnUse" color-interpolation-filters="sRGB">
      <feDropShadow dx="0" dy="16" stdDeviation="18" flood-color="#F39A27" flood-opacity="0.18"/>
    </filter>
    <filter id="smallShadow" x="66" y="128" width="482" height="214" filterUnits="userSpaceOnUse" color-interpolation-filters="sRGB">
      <feDropShadow dx="0" dy="12" stdDeviation="14" flood-color="#E17700" flood-opacity="0.14"/>
    </filter>
  </defs>
</svg>
