<svg width="640" height="400" viewBox="0 0 640 400" fill="none" xmlns="http://www.w3.org/2000/svg">
  <rect width="640" height="400" rx="40" fill="url(#bg)"/>
  <circle cx="110" cy="78" r="54" fill="#D9ECFF" opacity="0.9"/>
  <circle cx="550" cy="70" r="18" fill="#FFFFFF" opacity="0.9"/>
  <circle cx="574" cy="106" r="10" fill="#B8DCFF" opacity="0.8"/>
  <g filter="url(#shadow)">
    <rect x="142" y="70" width="320" height="190" rx="24" fill="white"/>
    <rect x="142" y="70" width="320" height="42" rx="24" fill="#438EF2"/>
    <path d="M142 95C142 81.7452 152.745 71 166 71H438C451.255 71 462 81.7452 462 95V112H142V95Z" fill="url(#top)"/>
    <circle cx="177" cy="92" r="8" fill="#FF7D7D"/>
    <circle cx="203" cy="92" r="8" fill="#FFD15C"/>
    <circle cx="229" cy="92" r="8" fill="#6CE0A7"/>
    <rect x="180" y="142" width="100" height="86" rx="14" fill="#EAF4FF"/>
    <path d="M198 206L223 173L241 196L254 181L269 206H198Z" fill="#74B5FF"/>
    <rect x="310" y="145" width="108" height="16" rx="8" fill="#D9E9FC"/>
    <rect x="310" y="178" width="82" height="14" rx="7" fill="#D9E9FC"/>
    <rect x="310" y="209" width="96" height="14" rx="7" fill="#D9E9FC"/>
  </g>
  <g filter="url(#smallShadow)">
    <rect x="420" y="170" width="88" height="88" rx="22" fill="white"/>
    <path d="M452 203L436 219L452 235" stroke="#0052CC" stroke-width="8" stroke-linecap="round" stroke-linejoin="round"/>
    <path d="M476 203L492 219L476 235" stroke="#0052CC" stroke-width="8" stroke-linecap="round" stroke-linejoin="round"/>
    <path d="M469 196L459 242" stroke="#7AB8FF" stroke-width="7" stroke-linecap="round"/>
  </g>
  <g filter="url(#smallShadow)">
    <circle cx="120" cy="294" r="36" fill="#E9F4FF"/>
    <path d="M105 294H134" stroke="#0052CC" stroke-width="7" stroke-linecap="round"/>
    <path d="M125 283L136 294L125 305" stroke="#0052CC" stroke-width="7" stroke-linecap="round" stroke-linejoin="round"/>
  </g>
  <defs>
    <linearGradient id="bg" x1="0" y1="0" x2="640" y2="400" gradientUnits="userSpaceOnUse">
      <stop stop-color="#F7FBFF"/>
      <stop offset="1" stop-color="#EEF7FF"/>
    </linearGradient>
    <linearGradient id="top" x1="142" y1="70" x2="462" y2="112" gradientUnits="userSpaceOnUse">
      <stop stop-color="#5BA2FF"/>
      <stop offset="1" stop-color="#1667DF"/>
    </linearGradient>
    <filter id="shadow" x="104" y="42" width="396" height="266" filterUnits="userSpaceOnUse" color-interpolation-filters="sRGB">
      <feDropShadow dx="0" dy="16" stdDeviation="18" flood-color="#0052CC" flood-opacity="0.18"/>
    </filter>
    <filter id="smallShadow" x="62" y="146" width="482" height="206" filterUnits="userSpaceOnUse" color-interpolation-filters="sRGB">
      <feDropShadow dx="0" dy="12" stdDeviation="14" flood-color="#0052CC" flood-opacity="0.16"/>
    </filter>
  </defs>
</svg>
